<svg xmlns="http://www.w3.org/2000/svg" xmlns:v="https://vecta.io/nano" width="250" height="84" fill="none"> <g>
  <title>Layer 1</title>
  <g stroke="null" id="svg_10">
   <path stroke="null" d="m146.23089,48.08191c0,0 11.48127,8.49481 3.87352,19.4784s-21.56919,16.06404 -20.2037,11.02474c1.3655,-5.03929 -5.01609,-12.52624 -6.04718,-14.27458c-1.00322,-1.74832 0.75242,-17.42156 22.37733,-16.2286l0.00001,0l0.00001,0.00001l0,0.00001l0,0.00001l0,-0.00001l0,0.00001l0,0.00001l0.00001,0z" id="svg_11"/>
   <path stroke="null" fill="#141B25" d="m195.91804,42.32272c-1.39336,-0.61706 -2.61951,-1.41922 -3.59487,-2.38595c-0.72455,-0.74046 -1.75563,-1.60434 -3.09325,-2.38595c0,0 -21.29052,-17.64781 -68.99911,-9.48209c-4.43087,0.76103 -8.52736,1.72777 -12.31728,2.85901c-9.66991,-6.00602 -34.33236,-15.13845 -50.24449,-13.32843c-0.80816,0.08226 -1.5327,0.45251 -1.8671,1.00786c-0.47374,0.78159 -0.25081,1.97456 3.42766,3.20869c5.87996,1.95402 22.93468,11.14814 27.42129,19.2933c-18.55955,13.30784 -22.93468,32.41602 -24.32803,43.811c-1.97857,16.4137 -15.27121,39.26534 -34.55529,40.47889c0,0 -2.50803,-0.0617 -1.8671,5.6975c0.47374,4.23713 -4.70955,7.77492 -7.52414,9.35868c-0.418,0.24683 -0.13934,0.76103 0.39014,0.67876c5.87996,-0.71989 22.656,-3.82574 33.24554,-16.29028c12.9861,-15.32357 35.80931,-41.44562 57.29491,-53.72503s53.83937,-6.06773 85.07846,-20.46569c0.0836,0.02058 10.06004,-4.52507 1.5327,-8.33027l-0.00001,0.00001l0.00001,-0.00001l0.00001,0.00001l-0.00002,0.00001l-0.00002,-0.00002l0,-0.00001l0,0.00003l-0.00001,-0.00002z" id="svg_12"/>
   <path stroke="null" fill="#0C131D" d="m163.34133,47.83509c0,0 -14.29586,-6.64364 -23.71496,0.43193s-25.83286,16.43427 -36.06011,17.3393s-30.84896,11.62124 -30.26373,18.71738s-0.418,11.12758 -5.07184,15.42641c-4.65381,4.29882 -12.65169,21.22674 -19.31195,24.31202c-3.51126,1.62492 -6.68812,5.98545 -5.32262,8.24797c3.00965,-2.01572 5.90784,-4.46337 8.44376,-7.44582c12.9861,-15.32357 35.80931,-41.44562 57.29491,-53.72503c14.99253,-8.57707 35.27983,-8.14515 56.76542,-11.97089c-0.66881,-4.11371 -2.75884,-11.33327 -2.75884,-11.33327l-0.00001,0.00001l-0.00001,0l0,0.00001l0,0.00001l0,-0.00002l-0.00001,0l-0.00002,0l-0.00001,-0.00002l0.00002,0.00001z" id="svg_13"/>
   <g stroke="null" id="svg_14">
    <g stroke="null" id="svg_15">
     <path stroke="null" fill="#E5E4F2" d="m198.59331,47.67054c-1.83923,0.43193 -4.37515,0.69932 -7.4684,0.28796c-7.05041,-0.94616 -25.6378,-7.21955 -41.85648,1.35753c-17.63992,9.31754 -29.14906,14.11003 -36.22733,15.07673c-7.07827,0.94616 -25.9722,-7.56922 -32.88328,-0.28796c-6.91106,7.28127 -14.90893,18.86135 -5.74065,18.18259c9.1683,-0.67876 20.67744,-9.25586 13.9893,0.59648c-1.81137,2.69448 -4.62595,6.66421 -7.94214,11.08644c9.22402,-8.92676 19.84143,-16.84564 29.56707,-22.39915c21.48559,-12.27941 54.00658,-5.73861 84.43752,-20.93879c0,0.04114 2.75884,-1.21354 4.12434,-2.96187l0.00001,0l0.00001,0.00001l0.00001,0l0.00001,0.00001l0,0.00001l0.00001,0l0,0.00001z" id="svg_16"/>
     <path stroke="null" fill="#F3F4F4" d="m149.2684,49.3366c-17.63992,9.31754 -29.14906,14.11003 -36.22733,15.07673c-7.07827,0.94616 -25.9722,-7.56922 -32.88328,-0.28796c-6.91106,7.28127 -14.90893,18.86135 -5.74065,18.18259c9.1683,-0.67876 20.67744,-9.25586 13.9893,0.59648c-1.6999,2.52994 -4.29154,6.19115 -7.32907,10.28426c0.1672,-0.08226 0.33441,-0.18512 0.50161,-0.26738c2.61951,-2.48879 5.2669,-4.93645 7.97001,-7.28127c2.50803,-3.57893 3.81781,-7.17842 4.31941,-8.82391c1.11468,-3.45553 -6.01931,0.51422 -11.67634,-1.56321c-5.65704,-2.07742 7.30119,-3.57893 8.16508,-8.18629c0.86388,-4.62792 9.86498,-1.52208 16.07936,-0.69932c6.21438,0.82275 13.51558,-1.78946 19.20049,-5.01872c5.65704,-3.22925 20.0365,-3.18812 32.46525,-6.84932c12.42876,-3.64064 11.95502,-6.93159 27.08689,-5.86204c6.99467,0.49364 10.78459,0.12341 12.87463,-0.41138c0.19507,-0.18512 0.36228,-0.3908 0.52948,-0.59648c-1.83923,0.43193 -4.37515,0.69932 -7.4684,0.28796c-7.02253,-0.88445 -25.60993,-7.15786 -41.85648,1.41922l0,0.00001l0.00002,0l-0.00001,-0.00002l0,0.00001l0.00002,0l0,0.00001l0,-0.00001l-0.00001,0.00001l0,0.00001l0.00002,0.00001l0,0.00001z" id="svg_17"/>
     <path stroke="null" fill="#E5E4F2" d="m53.09881,122.1081c-8.63883,2.01572 -19.84143,2.40652 -20.7889,7.96003c-0.83601,4.89531 -3.95714,7.03444 -10.4502,10.61336c7.38479,-1.29582 21.09544,-5.10099 30.20801,-15.83778c0.94748,-1.13127 1.9507,-2.30368 3.00965,-3.53781c-0.69668,0.3908 -1.3655,0.67876 -1.97857,0.80218l0.00001,0l-0.00001,0l0.00001,0l-0.00001,0l0,0.00001l0,0.00002l0.00001,-0.00001z" id="svg_18"/>
    </g>
   </g>
   <path stroke="null" fill="#141B25" d="m137.34126,54.37589c0,0 5.82423,11.20986 -7.2176,18.94364c-13.01397,7.73377 -28.53598,8.18629 -24.52311,3.99029c4.01286,-4.19598 2.31299,-12.95818 2.3687,-14.85049c0.02786,-1.89231 10.25511,-15.6938 29.37199,-8.08343l0.00001,-0.00001l0.00001,0l-0.00001,0l0,-0.00001l0.00001,0l0.00001,0.00001l-0.00001,0z" id="svg_19"/>
   <path stroke="null" fill="#FFFFFF" d="m167.10339,35.12375c0,0 -9.83712,-3.27041 -18.28087,-1.39866s-12.40089,3.57893 -9.64205,6.04716c2.75884,2.46823 15.10402,2.01572 21.45771,1.41922c6.35372,-0.59648 9.69777,-3.41439 9.66991,-4.07257c0,-0.63761 -3.20472,-1.99514 -3.20472,-1.99514l0.00001,0l0.00001,0l0,-0.00001l0,-0.00001l0,0.00001z" id="svg_20"/>
   <path stroke="null" fill="#1E252F" d="m103.62199,31.81219c0.83601,-0.63761 0.64094,-1.68661 -0.39014,-2.15969c-3.9014,-1.74832 -20.7053,-9.11188 -31.57351,-10.34598c-10.33873,-1.19298 -11.87142,-0.0617 -8.75029,1.11069c3.12112,1.17241 17.02685,3.86689 21.09544,7.09615s4.51447,5.5535 9.1683,6.02659c3.39979,0.3291 8.58309,-0.34966 10.4502,-1.72777l-0.00001,-0.00001l-0.00001,-0.00001l0.00001,0l0.00001,0.00001l-0.00001,0l0,0.00001l0.00001,0.00001z" id="svg_21"/>
   <path stroke="null" fill="#0C131D" d="m59.28532,21.83645c5.87996,1.95402 22.93468,11.14814 27.42129,19.2933c4.12434,-1.5015 1.97857,-3.55835 1.5327,-5.98545c-0.44587,-2.4271 -2.98179,-4.75133 -7.02253,-6.35567c-4.04073,-1.60434 -9.25189,-3.14699 -15.38267,-6.31454c-4.18007,-2.15969 -6.82746,-2.01572 -9.08469,-1.78946c0.52948,0.37024 1.33763,0.76103 2.5359,1.15185l0,-0.00001l-0.00001,0l0.00001,0l-0.00001,0l0,-0.00001l0.00001,0l0.00001,-0.00001l-0.00001,0z" id="svg_22"/>
   <path stroke="null" fill="#1E252F" d="m125.85999,50.98208c0,0 8.38802,0.37024 9.11257,7.83662c0.72455,7.48695 -6.93893,15.73494 -14.12865,16.8662s-9.00111,-1.95402 -3.20472,-4.79248c5.82423,-2.81788 9.39124,-6.89046 2.03431,-9.37925s-1.50484,-9.46154 6.18651,-10.53109l0,0.00001l-0.00001,0l-0.00001,0.00001l-0.00001,0l0,-0.00001l0.00001,0l-0.00001,0l0,-0.00001l0.00001,0z" id="svg_23"/>
   <path stroke="null" fill="#363E4B" d="m132.4645,58.03709c-0.44587,-1.76889 -2.48017,-3.96972 -5.01609,-4.40166c-1.97857,-0.34966 -4.98823,-0.12341 -5.6849,1.54263c-0.36228,0.88445 0.27868,1.85117 1.22616,2.46823c0.91961,0.61706 2.1179,0.96672 3.26046,1.35753c1.14255,0.3908 2.25725,0.86387 2.95392,1.64549c0.91961,1.04899 0.80816,2.38595 1.22616,3.59949c0.05573,0.14399 0.11147,0.28796 0.27868,0.37024c0.36228,0.16454 0.78029,-0.12341 0.97535,-0.3908c0.91961,-1.25468 1.00322,-2.7562 0.97535,-4.19598c0,-0.69932 -0.02786,-1.35753 -0.19507,-1.99514l0,0.00001l-0.00001,0l0,-0.00001l0,-0.00001l0,-0.00002l-0.00002,0l0,-0.00002l0.00001,0.00001l0,0.00001z" id="svg_24"/>
   <path stroke="null" fill="#1E252F" d="m144.0851,26.89631c0,0 -25.83286,-1.35753 -47.09552,10.94247s-26.58529,20.50683 -23.74282,23.5304c2.89818,3.08529 9.53057,-12.7525 24.66245,-13.76035c15.13188,-1.00786 25.69353,-1.11069 30.62602,-5.57407s11.56488,-10.57223 24.60671,-10.34598c13.0697,0.24683 6.15865,-4.07257 -9.05682,-4.79248l-0.00001,-0.00001l-0.00001,-0.00001l0.00001,0l0,0.00001l0,0.00001l0,0.00001l-0.00001,-0.00001l0,0.00001z" id="svg_25"/>
   <path stroke="null" fill="#363E4B" d="m95.87493,39.89563c0,0 25.69353,-13.04045 37.56495,-10.86019c0,0 4.73742,0.53478 -1.72776,3.80518s-5.46196,6.39681 -14.37946,8.00117c-8.9175,1.60434 -21.45771,5.26555 -24.1887,3.99029c-2.70311,-1.29582 2.73098,-4.93645 2.73098,-4.93645l0.00001,-0.00001l-0.00001,-0.00001l-0.00001,0.00001l0.00001,0l0,0.00001l-0.00001,0z" id="svg_26"/>
  </g>
 </g>
 <g>
  <title>Layer 1</title>
  <g id="svg_27" stroke="null">
   <g id="svg_28" stroke="null">
    <path id="svg_29" d="m245.62274,71.18621c0,0 -8.55555,4.31613 -8.52898,22.9347s4.01207,28.88701 6.93478,26.06601c2.89613,-2.821 9.96377,-23.75279 17.61593,-32.83641c7.59903,-9.08361 -16.02173,-16.16431 -16.02173,-16.16431l0,0.00001z" stroke="null"/>
    <path id="svg_30" d="m361.62751,120.69471c-15.46376,-2.00291 -15.91545,-11.93282 -15.91545,-11.93282c-11.21255,-25.1633 -32.92027,-44.74101 -45.54104,-54.6145c2.52415,-5.92409 8.84782,-18.81605 18.971,-27.50472c7.12077,-6.12156 2.41787,-7.67311 2.41787,-7.67311c-9.85748,-2.62353 -31.59177,13.37153 -42.5652,22.14483c-51.54587,-24.11952 -71.95165,4.71107 -76.20286,12.21492c-0.61111,1.07198 -1.30193,2.05933 -2.1256,2.96205c-1.88647,2.05933 -5.18116,6.23441 -4.83575,10.15559c0.47826,5.47273 26.70288,10.94547 39.35022,16.4182c12.64734,5.47273 53.40577,16.89777 78.70044,21.38316c25.29467,4.48539 25.77293,21.38316 25.77293,21.38316c-15.46376,18.90068 -5.15459,25.86854 -5.15459,25.86854s1.88647,-3.97761 10.78743,-5.47273c8.90096,-1.49513 11.71738,-8.46299 11.71738,-8.46299s10.78743,2.99026 19.21014,-0.98735c8.4227,-3.97761 14.9855,0 14.9855,0c-4.72947,-12.89196 -14.10869,-13.90752 -29.57245,-15.88221l0,0l0.00003,-0.00002z" fill="#141B25" stroke="null"/>
    <path id="svg_31" d="m220.14208,38.57548c0,0 19.4227,-12.80733 50.29707,0.93093s44.4251,28.74596 45.00964,30.91813c0.58454,2.20038 -7.94444,-1.55155 -16.76569,-0.93093s-20.88405,-4.37254 -28.24395,-13.42794c-7.3599,-9.0554 -11.77053,-19.69056 -27.65941,-18.1108c-15.88888,1.55155 -22.66424,7.19354 -25.0024,5.61378c-2.33816,-1.57976 2.36473,-4.99317 2.36473,-4.99317l0.00001,0z" fill="#1E252F" stroke="null"/>
    <g id="svg_32" stroke="null">
     <path id="svg_33" d="m311.91498,77.53345c-12.80676,-7.02428 -26.91545,4.20329 -36.18839,4.20329c-9.27294,0 -16.76569,-8.43478 -12.80676,-17.32092c3.95894,-8.91435 -10.60144,-5.16242 -24.25844,-1.86186c-13.68357,3.27235 -19.4227,0.47957 -33.98308,0.93093c-5.81884,0.19747 -8.05072,1.89007 -8.60869,3.83656c2.86956,5.19063 27.07487,10.38127 39.08452,15.5719c11.13284,4.8239 44.02655,14.24603 68.97581,19.49309c-8.4227,-7.0807 4.25121,-5.72663 14.85265,-6.57292c11.90338,-0.93093 5.73913,-11.25578 -7.06763,-18.28006l0,0l0.00001,-0.00001z" fill="#F3F4F4" stroke="null"/>
     <path id="svg_34" d="m235.15414,82.89335c9.00724,3.89298 32.20288,10.80442 53.96374,16.07968c1.70048,-7.33459 15.83574,-11.00189 14.29468,-15.74116c-2.07246,-6.23441 -34.70047,1.86186 -42.35264,-1.55155c-7.65217,-3.44162 -6.19082,-8.74509 -14.10869,-8.74509c-7.94444,0 -16.18115,-0.93093 -31.48549,-6.57292c-15.30434,-5.61378 -19.36955,0.95914 -19.36955,0.95914c2.843,5.19063 27.0483,10.38127 39.05795,15.5719l0,0z" fill="#E5E4F2" stroke="null"/>
     <path id="svg_35" d="m374.14199,134.23549c7.49275,-5.16242 14.4541,1.32587 13.9227,-0.45136c-4.62319,-15.09233 -41.71495,-8.46299 -47.90577,-18.30827c-2.81642,-4.48539 -6.27053,-5.16242 -10.76087,-5.44452c6.96135,4.62644 9.08695,10.55053 9.77777,13.62542c0.02657,0.02821 0.39855,1.9747 0.42512,2.00291c1.83333,1.32587 1.67391,2.03112 0,3.61088c-10.12318,9.47855 -6.90821,19.97266 -5.65942,20.42402c1.3285,0.47957 3.08212,-5.61378 10.14975,-6.57292s12.83333,-5.52915 12.83333,-5.52915s9.69806,1.77723 17.21738,-3.35699l0,0l0.00001,-0.00002z" fill="#E5E4F2" stroke="null"/>
    </g>
    <path id="svg_36" d="m228.11309,47.1231c0,0 -3.13526,5.41632 2.76328,5.41632c5.89855,0 22.82366,0 31.08694,0.8463c8.26328,0.8463 -5.5,-13.79467 -16.92511,-13.79467c-11.42512,0 -16.92511,7.53206 -16.92511,7.53206l0,-0.00001z" fill="#FFFFFF" stroke="null"/>
    <path id="svg_37" d="m267.43674,75.53054c0,0 -2.76328,9.6196 10.22947,22.14483c12.99274,12.52523 22.82366,16.27715 22.82366,12.10208s-9.83092,-23.80921 -11.02657,-35.91129c-1.16908,-12.13029 -22.02656,1.66439 -22.02656,1.66439l0,-0.00001z" fill="#141B25" stroke="null"/>
   </g>
   <path id="svg_38" d="m282.20968,40.74765c0,0 28.82849,-21.55242 34.70047,-18.73142c5.87198,2.821 -14.42753,4.68286 -17.93477,15.62832s-9.11352,8.71688 -16.76569,3.1031l-0.00001,0z" fill="#1E252F" stroke="null"/>
   <path id="svg_39" d="m273.20243,70.25528c-1.24879,0.02821 -2.25845,1.10019 -2.28502,2.42606c-0.02657,3.21594 0.29227,9.28108 2.73671,14.27425c3.53381,7.19354 16.18115,20.31118 18.83815,18.73142s-7.65217,-8.74509 -8.52898,-19.69056c-0.7971,-10.01454 -2.86956,-15.854 -10.76087,-15.74116l0,0l0.00001,-0.00001z" fill="#1E252F" stroke="null"/>
   <path id="svg_40" d="m265.73626,43.87896c0,0 11.77053,19.04173 25.29467,20.9318c13.52415,1.86186 18.22704,0.31031 7.94444,-7.19354c-10.2826,-7.50385 -34.40819,-22.79365 -33.23911,-13.73826l0,0z" fill="#29313C" stroke="null"/>
  </g>
  <path fill="#6FBEEA" stroke="null" stroke-width="null" stroke-opacity="null" fill-opacity="null" d="m1.00089,73.36786l0.4849,-72.36697l0.5151,76.87368l0.5151,-76.87368l0.4849,72.36697l-0.5151,76.87431l0.5151,76.87431l-0.4849,72.36765l-0.5151,-76.87433l-0.5151,76.87433l-0.4849,-72.36765l0.5151,-76.87431l-0.5151,-76.87431z" id="svg_1"/>
 </g>
</svg>