<svg xmlns="http://www.w3.org/2000/svg" xmlns:v="https://vecta.io/nano" width="202" height="134" fill="none">
 
 <g>
  <title>Layer 1</title>
  <g stroke="null" id="svg_10">
   <path stroke="null" d="m146.23089,48.08191c0,0 11.48127,8.49481 3.87352,19.4784s-21.56919,16.06404 -20.2037,11.02474c1.3655,-5.03929 -5.01609,-12.52624 -6.04718,-14.27458c-1.00322,-1.74832 0.75242,-17.42156 22.37733,-16.2286l0.00001,0l0.00001,0.00001l0,0.00001l0,0.00001l0,-0.00001l0,0.00001l0,0.00001l0.00001,0z" id="svg_11"/>
   <path stroke="null" fill="#141B25" d="m195.91804,42.32272c-1.39336,-0.61706 -2.61951,-1.41922 -3.59487,-2.38595c-0.72455,-0.74046 -1.75563,-1.60434 -3.09325,-2.38595c0,0 -21.29052,-17.64781 -68.99911,-9.48209c-4.43087,0.76103 -8.52736,1.72777 -12.31728,2.85901c-9.66991,-6.00602 -34.33236,-15.13845 -50.24449,-13.32843c-0.80816,0.08226 -1.5327,0.45251 -1.8671,1.00786c-0.47374,0.78159 -0.25081,1.97456 3.42766,3.20869c5.87996,1.95402 22.93468,11.14814 27.42129,19.2933c-18.55955,13.30784 -22.93468,32.41602 -24.32803,43.811c-1.97857,16.4137 -15.27121,39.26534 -34.55529,40.47889c0,0 -2.50803,-0.0617 -1.8671,5.6975c0.47374,4.23713 -4.70955,7.77492 -7.52414,9.35868c-0.418,0.24683 -0.13934,0.76103 0.39014,0.67876c5.87996,-0.71989 22.656,-3.82574 33.24554,-16.29028c12.9861,-15.32357 35.80931,-41.44562 57.29491,-53.72503s53.83937,-6.06773 85.07846,-20.46569c0.0836,0.02058 10.06004,-4.52507 1.5327,-8.33027l-0.00001,0.00001l0.00001,-0.00001l0.00001,0.00001l-0.00002,0.00001l-0.00002,-0.00002l0,-0.00001l0,0.00003l-0.00001,-0.00002z" id="svg_12"/>
   <path stroke="null" fill="#0C131D" d="m163.34133,47.83509c0,0 -14.29586,-6.64364 -23.71496,0.43193s-25.83286,16.43427 -36.06011,17.3393s-30.84896,11.62124 -30.26373,18.71738s-0.418,11.12758 -5.07184,15.42641c-4.65381,4.29882 -12.65169,21.22674 -19.31195,24.31202c-3.51126,1.62492 -6.68812,5.98545 -5.32262,8.24797c3.00965,-2.01572 5.90784,-4.46337 8.44376,-7.44582c12.9861,-15.32357 35.80931,-41.44562 57.29491,-53.72503c14.99253,-8.57707 35.27983,-8.14515 56.76542,-11.97089c-0.66881,-4.11371 -2.75884,-11.33327 -2.75884,-11.33327l-0.00001,0.00001l-0.00001,0l0,0.00001l0,0.00001l0,-0.00002l-0.00001,0l-0.00002,0l-0.00001,-0.00002z" id="svg_13"/>
   <g stroke="null" id="svg_14">
    <g stroke="null" id="svg_15">
     <path stroke="null" fill="#E5E4F2" d="m198.59331,47.67054c-1.83923,0.43193 -4.37515,0.69932 -7.4684,0.28796c-7.05041,-0.94616 -25.6378,-7.21955 -41.85648,1.35753c-17.63992,9.31754 -29.14906,14.11003 -36.22733,15.07673c-7.07827,0.94616 -25.9722,-7.56922 -32.88328,-0.28796c-6.91106,7.28127 -14.90893,18.86135 -5.74065,18.18259c9.1683,-0.67876 20.67744,-9.25586 13.9893,0.59648c-1.81137,2.69448 -4.62595,6.66421 -7.94214,11.08644c9.22402,-8.92676 19.84143,-16.84564 29.56707,-22.39915c21.48559,-12.27941 54.00658,-5.73861 84.43752,-20.93879c0,0.04114 2.75884,-1.21354 4.12434,-2.96187l0.00001,0l0.00001,0.00001l0.00001,0l0.00001,0.00001l0,0.00001l0.00001,0z" id="svg_16"/>
     <path stroke="null" fill="#F3F4F4" d="m149.2684,49.3366c-17.63992,9.31754 -29.14906,14.11003 -36.22733,15.07673c-7.07827,0.94616 -25.9722,-7.56922 -32.88328,-0.28796c-6.91106,7.28127 -14.90893,18.86135 -5.74065,18.18259c9.1683,-0.67876 20.67744,-9.25586 13.9893,0.59648c-1.6999,2.52994 -4.29154,6.19115 -7.32907,10.28426c0.1672,-0.08226 0.33441,-0.18512 0.50161,-0.26738c2.61951,-2.48879 5.2669,-4.93645 7.97001,-7.28127c2.50803,-3.57893 3.81781,-7.17842 4.31941,-8.82391c1.11468,-3.45553 -6.01931,0.51422 -11.67634,-1.56321c-5.65704,-2.07742 7.30119,-3.57893 8.16508,-8.18629c0.86388,-4.62792 9.86498,-1.52208 16.07936,-0.69932c6.21438,0.82275 13.51558,-1.78946 19.20049,-5.01872c5.65704,-3.22925 20.0365,-3.18812 32.46525,-6.84932c12.42876,-3.64064 11.95502,-6.93159 27.08689,-5.86204c6.99467,0.49364 10.78459,0.12341 12.87463,-0.41138c0.19507,-0.18512 0.36228,-0.3908 0.52948,-0.59648c-1.83923,0.43193 -4.37515,0.69932 -7.4684,0.28796c-7.02253,-0.88445 -25.60993,-7.15786 -41.85648,1.41922l0,0.00001l0.00002,0l-0.00001,-0.00002l0,0.00001l0.00002,0l0,0.00001l0,-0.00001l-0.00001,0.00001l0,0.00001l0.00002,0.00001z" id="svg_17"/>
     <path stroke="null" fill="#E5E4F2" d="m53.09881,122.1081c-8.63883,2.01572 -19.84143,2.40652 -20.7889,7.96003c-0.83601,4.89531 -3.95714,7.03444 -10.4502,10.61336c7.38479,-1.29582 21.09544,-5.10099 30.20801,-15.83778c0.94748,-1.13127 1.9507,-2.30368 3.00965,-3.53781c-0.69668,0.3908 -1.3655,0.67876 -1.97857,0.80218l0.00001,0l-0.00001,0l0.00001,0l-0.00001,0l0,0.00001l0,0.00002l0.00001,-0.00001z" id="svg_18"/>
    </g>
   </g>
   <path stroke="null" fill="#141B25" d="m137.34126,54.37589c0,0 5.82423,11.20986 -7.2176,18.94364c-13.01397,7.73377 -28.53598,8.18629 -24.52311,3.99029c4.01286,-4.19598 2.31299,-12.95818 2.3687,-14.85049c0.02786,-1.89231 10.25511,-15.6938 29.37199,-8.08343l0.00001,-0.00001l0.00001,0l-0.00001,0l0,-0.00001l0.00001,0l0.00001,0.00001z" id="svg_19"/>
   <path stroke="null" fill="#FFFFFF" d="m167.10339,35.12375c0,0 -9.83712,-3.27041 -18.28087,-1.39866s-12.40089,3.57893 -9.64205,6.04716c2.75884,2.46823 15.10402,2.01572 21.45771,1.41922c6.35372,-0.59648 9.69777,-3.41439 9.66991,-4.07257c0,-0.63761 -3.20472,-1.99514 -3.20472,-1.99514l0.00001,0l0.00001,0l0,-0.00001l0,-0.00001l0,0.00001z" id="svg_20"/>
   <path stroke="null" fill="#1E252F" d="m103.62199,31.81219c0.83601,-0.63761 0.64094,-1.68661 -0.39014,-2.15969c-3.9014,-1.74832 -20.7053,-9.11188 -31.57351,-10.34598c-10.33873,-1.19298 -11.87142,-0.0617 -8.75029,1.11069c3.12112,1.17241 17.02685,3.86689 21.09544,7.09615s4.51447,5.5535 9.1683,6.02659c3.39979,0.3291 8.58309,-0.34966 10.4502,-1.72777l-0.00001,-0.00001l-0.00001,-0.00001l0.00001,0l0.00001,0.00001l-0.00001,0l0,0.00001l0.00001,0.00001z" id="svg_21"/>
   <path stroke="null" fill="#0C131D" d="m59.28532,21.83645c5.87996,1.95402 22.93468,11.14814 27.42129,19.2933c4.12434,-1.5015 1.97857,-3.55835 1.5327,-5.98545c-0.44587,-2.4271 -2.98179,-4.75133 -7.02253,-6.35567c-4.04073,-1.60434 -9.25189,-3.14699 -15.38267,-6.31454c-4.18007,-2.15969 -6.82746,-2.01572 -9.08469,-1.78946c0.52948,0.37024 1.33763,0.76103 2.5359,1.15185l0,-0.00001l-0.00001,0l0.00001,0l-0.00001,0l0,-0.00001l0.00001,0l0.00001,-0.00001z" id="svg_22"/>
   <path stroke="null" fill="#1E252F" d="m125.85999,50.98208c0,0 8.38802,0.37024 9.11257,7.83662c0.72455,7.48695 -6.93893,15.73494 -14.12865,16.8662s-9.00111,-1.95402 -3.20472,-4.79248c5.82423,-2.81788 9.39124,-6.89046 2.03431,-9.37925s-1.50484,-9.46154 6.18651,-10.53109l0,0.00001l-0.00001,0l-0.00001,0.00001l-0.00001,0l0,-0.00001l0.00001,0l-0.00001,0l0,-0.00001z" id="svg_23"/>
   <path stroke="null" fill="#363E4B" d="m132.4645,58.03709c-0.44587,-1.76889 -2.48017,-3.96972 -5.01609,-4.40166c-1.97857,-0.34966 -4.98823,-0.12341 -5.6849,1.54263c-0.36228,0.88445 0.27868,1.85117 1.22616,2.46823c0.91961,0.61706 2.1179,0.96672 3.26046,1.35753c1.14255,0.3908 2.25725,0.86387 2.95392,1.64549c0.91961,1.04899 0.80816,2.38595 1.22616,3.59949c0.05573,0.14399 0.11147,0.28796 0.27868,0.37024c0.36228,0.16454 0.78029,-0.12341 0.97535,-0.3908c0.91961,-1.25468 1.00322,-2.7562 0.97535,-4.19598c0,-0.69932 -0.02786,-1.35753 -0.19507,-1.99514l0,0.00001l-0.00001,0l0,-0.00001l0,-0.00001l0,-0.00002l-0.00002,0l0,-0.00002l0.00001,0.00001z" id="svg_24"/>
   <path stroke="null" fill="#1E252F" d="m144.0851,26.89631c0,0 -25.83286,-1.35753 -47.09552,10.94247s-26.58529,20.50683 -23.74282,23.5304c2.89818,3.08529 9.53057,-12.7525 24.66245,-13.76035c15.13188,-1.00786 25.69353,-1.11069 30.62602,-5.57407s11.56488,-10.57223 24.60671,-10.34598c13.0697,0.24683 6.15865,-4.07257 -9.05682,-4.79248l-0.00001,-0.00001l-0.00001,-0.00001l0.00001,0l0,0.00001l0,0.00001l0,0.00001l-0.00001,-0.00001z" id="svg_25"/>
   <path stroke="null" fill="#363E4B" d="m95.87493,39.89563c0,0 25.69353,-13.04045 37.56495,-10.86019c0,0 4.73742,0.53478 -1.72776,3.80518s-5.46196,6.39681 -14.37946,8.00117c-8.9175,1.60434 -21.45771,5.26555 -24.1887,3.99029c-2.70311,-1.29582 2.73098,-4.93645 2.73098,-4.93645l0.00001,-0.00001l-0.00001,-0.00001l-0.00001,0.00001l0.00001,0l0,0.00001z" id="svg_26"/>
  </g>
 </g>
</svg>