<svg xmlns="http://www.w3.org/2000/svg" xmlns:v="https://vecta.io/nano" width="202" height="134" fill="none"> 
 <g>
  <title>Layer 1</title>
  <g id="svg_27" stroke="null">
   <g id="svg_28" stroke="null">
    <path id="svg_29" d="m60.62274,62.18621c0,0 -8.55555,4.31613 -8.52898,22.9347s4.01207,28.88701 6.93478,26.06601c2.89613,-2.821 9.96377,-23.75279 17.61593,-32.83641c7.59903,-9.08361 -16.02173,-16.16431 -16.02173,-16.16431l0,0.00001z" stroke="null"/>
    <path id="svg_30" d="m176.62751,111.69471c-15.46376,-2.00291 -15.91545,-11.93282 -15.91545,-11.93282c-11.21255,-25.1633 -32.92027,-44.74101 -45.54104,-54.6145c2.52415,-5.92409 8.84782,-18.81605 18.971,-27.50472c7.12077,-6.12156 2.41787,-7.67311 2.41787,-7.67311c-9.85748,-2.62353 -31.59177,13.37153 -42.5652,22.14483c-51.54587,-24.11952 -71.95165,4.71107 -76.20286,12.21492c-0.61111,1.07198 -1.30193,2.05933 -2.1256,2.96205c-1.88647,2.05933 -5.18116,6.23441 -4.83575,10.15559c0.47826,5.47273 26.70288,10.94547 39.35022,16.4182c12.64734,5.47273 53.40577,16.89777 78.70044,21.38316c25.29467,4.48539 25.77293,21.38316 25.77293,21.38316c-15.46376,18.90068 -5.15459,25.86854 -5.15459,25.86854s1.88647,-3.97761 10.78743,-5.47273c8.90096,-1.49513 11.71738,-8.46299 11.71738,-8.46299s10.78743,2.99026 19.21014,-0.98735c8.4227,-3.97761 14.9855,0 14.9855,0c-4.72947,-12.89196 -14.10869,-13.90752 -29.57245,-15.88221l0,0l0.00003,-0.00002z" fill="#141B25" stroke="null"/>
    <path id="svg_31" d="m35.14208,29.57548c0,0 19.4227,-12.80733 50.29707,0.93093s44.4251,28.74596 45.00964,30.91813c0.58454,2.20038 -7.94444,-1.55155 -16.76569,-0.93093s-20.88405,-4.37254 -28.24395,-13.42794c-7.3599,-9.0554 -11.77053,-19.69056 -27.65941,-18.1108c-15.88888,1.55155 -22.66424,7.19354 -25.0024,5.61378c-2.33816,-1.57976 2.36473,-4.99317 2.36473,-4.99317l0.00001,0z" fill="#1E252F" stroke="null"/>
    <g id="svg_32" stroke="null">
     <path id="svg_33" d="m126.91498,68.53345c-12.80676,-7.02428 -26.91545,4.20329 -36.18839,4.20329c-9.27294,0 -16.76569,-8.43478 -12.80676,-17.32092c3.95894,-8.91435 -10.60144,-5.16242 -24.25844,-1.86186c-13.68357,3.27235 -19.4227,0.47957 -33.98308,0.93093c-5.81884,0.19747 -8.05072,1.89007 -8.60869,3.83656c2.86956,5.19063 27.07487,10.38127 39.08452,15.5719c11.13284,4.8239 44.02655,14.24603 68.97581,19.49309c-8.4227,-7.0807 4.25121,-5.72663 14.85265,-6.57292c11.90338,-0.93093 5.73913,-11.25578 -7.06763,-18.28006l0,0l0.00001,-0.00001z" fill="#F3F4F4" stroke="null"/>
     <path id="svg_34" d="m50.15414,73.89335c9.00724,3.89298 32.20288,10.80442 53.96374,16.07968c1.70048,-7.33459 15.83574,-11.00189 14.29468,-15.74116c-2.07246,-6.23441 -34.70047,1.86186 -42.35264,-1.55155c-7.65217,-3.44162 -6.19082,-8.74509 -14.10869,-8.74509c-7.94444,0 -16.18115,-0.93093 -31.48549,-6.57292c-15.30434,-5.61378 -19.36955,0.95914 -19.36955,0.95914c2.843,5.19063 27.0483,10.38127 39.05795,15.5719l0,0z" fill="#E5E4F2" stroke="null"/>
     <path id="svg_35" d="m189.14199,125.23549c7.49275,-5.16242 14.4541,1.32587 13.9227,-0.45136c-4.62319,-15.09233 -41.71495,-8.46299 -47.90577,-18.30827c-2.81642,-4.48539 -6.27053,-5.16242 -10.76087,-5.44452c6.96135,4.62644 9.08695,10.55053 9.77777,13.62542c0.02657,0.02821 0.39855,1.9747 0.42512,2.00291c1.83333,1.32587 1.67391,2.03112 0,3.61088c-10.12318,9.47855 -6.90821,19.97266 -5.65942,20.42402c1.3285,0.47957 3.08212,-5.61378 10.14975,-6.57292s12.83333,-5.52915 12.83333,-5.52915s9.69806,1.77723 17.21738,-3.35699l0,0l0.00001,-0.00002z" fill="#E5E4F2" stroke="null"/>
    </g>
    <path id="svg_36" d="m43.11309,38.1231c0,0 -3.13526,5.41632 2.76328,5.41632c5.89855,0 22.82366,0 31.08694,0.8463c8.26328,0.8463 -5.5,-13.79467 -16.92511,-13.79467c-11.42512,0 -16.92511,7.53206 -16.92511,7.53206l0,-0.00001z" fill="#FFFFFF" stroke="null"/>
    <path id="svg_37" d="m82.43674,66.53054c0,0 -2.76328,9.6196 10.22947,22.14483c12.99274,12.52523 22.82366,16.27715 22.82366,12.10208s-9.83092,-23.80921 -11.02657,-35.91129c-1.16908,-12.13029 -22.02656,1.66439 -22.02656,1.66439l0,-0.00001z" fill="#141B25" stroke="null"/>
   </g>
   <path id="svg_38" d="m97.20968,31.74765c0,0 28.82849,-21.55242 34.70047,-18.73142c5.87198,2.821 -14.42753,4.68286 -17.93477,15.62832s-9.11352,8.71688 -16.76569,3.1031l-0.00001,0z" fill="#1E252F" stroke="null"/>
   <path id="svg_39" d="m88.20243,61.25528c-1.24879,0.02821 -2.25845,1.10019 -2.28502,2.42606c-0.02657,3.21594 0.29227,9.28108 2.73671,14.27425c3.53381,7.19354 16.18115,20.31118 18.83815,18.73142s-7.65217,-8.74509 -8.52898,-19.69056c-0.7971,-10.01454 -2.86956,-15.854 -10.76087,-15.74116l0,0l0.00001,-0.00001z" fill="#1E252F" stroke="null"/>
   <path id="svg_40" d="m80.73626,34.87896c0,0 11.77053,19.04173 25.29467,20.9318c13.52415,1.86186 18.22704,0.31031 7.94444,-7.19354c-10.2826,-7.50385 -34.40819,-22.79365 -33.23911,-13.73826l0,0z" fill="#29313C" stroke="null"/>
  </g>
 </g>
</svg>